<?xml version="1.0" standalone="no"?>
<!DOCTYPE svg PUBLIC "-//W3C//DTD SVG 20010904//EN"
 "http://www.w3.org/TR/2001/REC-SVG-20010904/DTD/svg10.dtd">
<svg version="1.0" xmlns="http://www.w3.org/2000/svg"
 width="343.000000pt" height="340.000000pt" viewBox="0 0 343.000000 340.000000"
 preserveAspectRatio="xMidYMid meet">

<g transform="translate(0.000000,340.000000) scale(0.100000,-0.100000)" stroke="currentColor" fill="#374151">
<path d="M1993 3316 c-101 -47 -159 -136 -170 -260 l-6 -74 -41 19 c-55 25
-166 25 -222 0 -90 -41 -163 -143 -171 -239 l-3 -47 57 -42 c32 -22 59 -40 60
-40 1 1 6 35 11 74 6 43 20 88 33 109 47 76 132 96 206 48 76 -50 73 -27 73
-648 0 -523 1 -555 18 -577 23 -27 75 -30 100 -5 16 15 17 77 22 749 l5 732
22 31 c62 87 206 82 262 -9 21 -34 21 -41 21 -704 0 -442 4 -680 10 -700 20
-55 93 -64 119 -14 8 13 11 213 11 609 l0 589 23 33 c38 56 72 75 135 75 70 0
115 -28 143 -89 17 -39 19 -78 19 -678 0 -625 0 -638 20 -658 23 -23 58 -26
86 -6 18 14 19 34 24 484 5 458 6 471 26 499 73 98 195 98 268 0 21 -28 21
-33 21 -815 0 -905 0 -906 -79 -1067 -151 -305 -438 -485 -802 -502 -376 -18
-736 121 -927 356 -15 18 -29 32 -31 30 -1 -2 -19 -28 -40 -57 l-38 -52 38
-43 c147 -162 371 -284 624 -339 135 -29 411 -36 535 -14 293 54 524 199 684
431 73 105 119 207 144 321 22 98 22 111 22 929 l0 830 -27 46 c-69 118 -205
179 -323 145 -27 -8 -60 -17 -71 -21 -21 -7 -22 -4 -26 97 -3 91 -7 109 -33
157 -79 144 -237 190 -405 117 -11 -4 -21 7 -37 41 -29 63 -86 120 -148 149
-70 33 -170 33 -242 0z"/>
<path d="M774 2775 c-93 -17 -134 -30 -219 -73 -254 -127 -420 -382 -433 -668
-4 -104 -3 -113 17 -133 21 -21 65 -28 87 -13 23 15 34 53 34 120 0 160 69
321 190 443 84 85 166 135 280 171 110 34 273 32 386 -5 273 -90 454 -340 454
-626 0 -157 -44 -280 -138 -393 -31 -38 -78 -94 -104 -124 -115 -138 -140
-228 -136 -498 3 -219 -6 -261 -73 -345 -48 -62 -152 -116 -253 -131 -148 -23
-309 31 -404 135 -61 66 -83 112 -116 235 -15 57 -32 99 -43 108 -28 20 -73
11 -96 -20 -20 -26 -20 -26 3 -120 42 -180 123 -302 253 -388 208 -137 516
-122 709 33 53 43 113 135 140 216 19 60 21 84 19 265 -3 281 7 310 169 496
97 112 157 216 186 325 24 88 29 274 11 361 -91 429 -498 706 -923 629z"/>
<path d="M770 2457 c-251 -75 -413 -332 -370 -585 13 -81 38 -110 85 -98 40
10 48 38 35 115 -27 160 45 316 187 408 199 127 468 50 574 -165 28 -58 33
-80 38 -170 5 -87 9 -106 25 -118 25 -18 46 -18 74 2 20 14 22 23 22 112 0 76
-6 111 -24 165 -95 269 -376 414 -646 334z"/>
<path d="M592 1993 c-21 -8 -33 -50 -22 -77 7 -18 21 -28 52 -36 24 -5 71 -24
105 -40 270 -129 334 -490 124 -700 -84 -84 -178 -120 -312 -120 -98 0 -112
-8 -107 -62 4 -43 34 -58 123 -58 260 0 477 175 530 428 19 87 19 135 -1 230
-40 196 -185 360 -371 419 -74 23 -96 26 -121 16z"/>
<path d="M1556 1417 c-27 -41 -10 -65 73 -104 170 -81 281 -255 281 -440 0
-25 -7 -76 -17 -114 -15 -66 -15 -70 2 -89 22 -24 58 -26 79 -5 40 40 58 229
32 339 -44 184 -169 340 -332 412 -69 30 -99 31 -118 1z"/>
<path d="M500 1325 c-102 -32 -174 -135 -168 -238 3 -46 6 -53 31 -65 41 -20
77 5 77 54 0 113 124 184 215 124 37 -25 67 -25 88 -2 34 38 13 79 -60 116
-46 23 -130 28 -183 11z"/>
</g>
</svg>
