<svg width="107" height="91" viewBox="0 0 107 91" fill="none" xmlns="http://www.w3.org/2000/svg">
    <path d="M1.765 57.5V30.5C1.765 28.2909 3.55586 26.5 5.765 26.5H33.9443C35.136 26.5 36.2655 25.9687 37.0254 25.0508L50.6839 8.55311C53.0738 5.66643 57.765 7.35636 57.765 11.1039V79.8431C57.765 83.4068 53.4564 85.1914 50.9366 82.6716L30.9366 62.6716C30.1864 61.9214 29.169 61.5 28.1081 61.5H5.765C3.55586 61.5 1.765 59.7091 1.765 57.5Z" fill="#1F56E0" stroke="#1F56E0" stroke-width="3.53" transform="translate(0 4.85494)"/>
<path d="M1.765 57.5V30.5C1.765 28.2909 3.55586 26.5 5.765 26.5H33.9443C35.136 26.5 36.2655 25.9687 37.0254 25.0508L50.6839 8.55311C53.0738 5.66643 57.765 7.35636 57.765 11.1039V79.8431C57.765 83.4068 53.4564 85.1914 50.9366 82.6716L30.9366 62.6716C30.1864 61.9214 29.169 61.5 28.1081 61.5H5.765C3.55586 61.5 1.765 59.7091 1.765 57.5Z" fill="#4F73CF" stroke="#28287E" stroke-width="3.53"/>
<path d="M68.765 27C75.8206 40.8299 75.8055 48.6744 68.765 62.5" stroke="#28287E" stroke-width="6" stroke-linecap="round"/>
<path d="M77.765 16.5C89.951 37.8938 89.7112 50.1761 77.765 72.5" stroke="#28287E" stroke-width="6" stroke-linecap="round"/>
<path d="M90.765 5.5C107.674 34.5 106.765 53 90.765 83" stroke="#28287E" stroke-width="6" stroke-linecap="round"/>
</svg>
