<svg width="95" height="80" viewBox="0 0 95 80" fill="none" xmlns="http://www.w3.org/2000/svg">
<g opacity="0.42">
<g filter="url(#filter0_d_114_1726)">
<mask id="path-1-inside-1_114_1726" fill="white">
<path d="M48.6846 3.22827C52.9889 -1.07595 59.9681 -1.07604 64.2725 3.22827L90.6348 29.5916C90.7334 29.6833 90.8327 29.7749 90.9287 29.8708C92.95 31.8921 94.0216 34.5032 94.1445 37.1501C94.2876 40.1446 93.2155 43.1866 90.9287 45.4734C90.8329 45.5692 90.7332 45.6602 90.6348 45.7517L64.2725 72.115C59.9681 76.4193 52.9889 76.4193 48.6846 72.115C44.3804 67.8107 44.3804 60.8324 48.6846 56.5281L52.4268 52.7859H14.6016C6.53734 52.7859 -3.52498e-07 46.2485 0 38.1843C0.000180552 30.1203 6.53745 23.5828 14.6016 23.5828H53.4512L48.6846 18.8162C44.3802 14.5118 44.3802 7.53263 48.6846 3.22827Z"/>
</mask>
<path d="M48.6846 3.22827C52.9889 -1.07595 59.9681 -1.07604 64.2725 3.22827L90.6348 29.5916C90.7334 29.6833 90.8327 29.7749 90.9287 29.8708C92.95 31.8921 94.0216 34.5032 94.1445 37.1501C94.2876 40.1446 93.2155 43.1866 90.9287 45.4734C90.8329 45.5692 90.7332 45.6602 90.6348 45.7517L64.2725 72.115C59.9681 76.4193 52.9889 76.4193 48.6846 72.115C44.3804 67.8107 44.3804 60.8324 48.6846 56.5281L52.4268 52.7859H14.6016C6.53734 52.7859 -3.52498e-07 46.2485 0 38.1843C0.000180552 30.1203 6.53745 23.5828 14.6016 23.5828H53.4512L48.6846 18.8162C44.3802 14.5118 44.3802 7.53263 48.6846 3.22827Z" fill="url(#paint0_linear_114_1726)"/>
<path d="M48.6846 3.22827L45.9912 0.534783L45.9911 0.53483L48.6846 3.22827ZM64.2725 3.22827L66.966 0.53488L66.9659 0.53483L64.2725 3.22827ZM90.6348 29.5916L87.9413 32.2849C87.9738 32.3174 88.0068 32.3493 88.0405 32.3806L90.6348 29.5916ZM90.9287 29.8708L93.6222 27.1774L93.6221 27.1773L90.9287 29.8708ZM94.1445 37.1501L90.3395 37.3269L90.3398 37.3319L94.1445 37.1501ZM90.9287 45.4734L93.622 48.1669L93.6222 48.1668L90.9287 45.4734ZM90.6348 45.7517L88.0404 42.9627C88.0068 42.994 87.9737 43.0259 87.9413 43.0583L90.6348 45.7517ZM64.2725 72.115L66.9659 74.8084L66.966 74.8084L64.2725 72.115ZM48.6846 72.115L45.9911 74.8084L45.9911 74.8084L48.6846 72.115ZM48.6846 56.5281L45.9911 53.8346L45.9911 53.8347L48.6846 56.5281ZM52.4268 52.7859L55.1202 55.4793C56.2096 54.3899 56.5355 52.7516 55.9459 51.3282C55.3563 49.9048 53.9674 48.9768 52.4268 48.9768V52.7859ZM14.6016 52.7859V56.595V52.7859ZM0 38.1843L-3.8091 38.1842V38.1843H0ZM14.6016 23.5828V27.3919V23.5828ZM53.4512 23.5828V27.3919C54.9918 27.3919 56.3807 26.4638 56.9703 25.0404C57.5599 23.6171 57.234 21.9787 56.1446 20.8893L53.4512 23.5828ZM48.6846 18.8162L45.9911 21.5096L48.6846 18.8162ZM48.6846 3.22827L51.378 5.92176C54.1948 3.10498 58.7623 3.10499 61.579 5.92171L64.2725 3.22827L66.9659 0.53483C61.174 -5.25708 51.783 -5.25688 45.9912 0.534783L48.6846 3.22827ZM64.2725 3.22827L61.579 5.92166L87.9413 32.2849L90.6348 29.5916L93.3283 26.8982L66.966 0.53488L64.2725 3.22827ZM90.6348 29.5916L88.0405 32.3806C88.1601 32.4919 88.1996 32.5286 88.2353 32.5644L90.9287 29.8708L93.6221 27.1773C93.4659 27.0211 93.3066 26.8746 93.229 26.8025L90.6348 29.5916ZM90.9287 29.8708L88.2353 32.5643C89.5592 33.8883 90.2589 35.5904 90.3395 37.3269L94.1445 37.1501L97.9495 36.9734C97.7843 33.4161 96.3408 29.896 93.6222 27.1774L90.9287 29.8708ZM94.1445 37.1501L90.3398 37.3319C90.4338 39.2993 89.7317 41.2835 88.2353 42.7799L90.9287 45.4734L93.6222 48.1668C96.6993 45.0896 98.1414 40.9899 97.9493 36.9684L94.1445 37.1501ZM90.9287 45.4734L88.2354 42.7798C88.2026 42.8126 88.1765 42.8361 88.0404 42.9627L90.6348 45.7517L93.2292 48.5407C93.2898 48.4842 93.4632 48.3258 93.622 48.1669L90.9287 45.4734ZM90.6348 45.7517L87.9413 43.0583L61.579 69.4216L64.2725 72.115L66.966 74.8084L93.3283 48.4451L90.6348 45.7517ZM64.2725 72.115L61.579 69.4215C58.7622 72.2384 54.1948 72.2384 51.378 69.4215L48.6846 72.115L45.9911 74.8084C51.783 80.6003 61.174 80.6003 66.9659 74.8084L64.2725 72.115ZM48.6846 72.115L51.3781 69.4216C48.5614 66.6048 48.5614 62.0382 51.3781 59.2215L48.6846 56.5281L45.9911 53.8347C40.1995 59.6265 40.1995 69.0165 45.9911 74.8084L48.6846 72.115ZM48.6846 56.5281L51.378 59.2215L55.1202 55.4793L52.4268 52.7859L49.7333 50.0924L45.9911 53.8346L48.6846 56.5281ZM52.4268 52.7859V48.9768H14.6016V52.7859V56.595H52.4268V52.7859ZM14.6016 52.7859V48.9768C8.64105 48.9768 3.8091 44.1448 3.8091 38.1843H0H-3.8091C-3.8091 48.3523 4.43364 56.595 14.6016 56.595V52.7859ZM0 38.1843L3.8091 38.1844C3.80924 32.2239 8.64125 27.3919 14.6016 27.3919V23.5828V19.7737C4.43366 19.7737 -3.80887 28.0166 -3.8091 38.1842L0 38.1843ZM14.6016 23.5828V27.3919H53.4512V23.5828V19.7737H14.6016V23.5828ZM53.4512 23.5828L56.1446 20.8893L51.378 16.1227L48.6846 18.8162L45.9911 21.5096L50.7577 26.2762L53.4512 23.5828ZM48.6846 18.8162L51.378 16.1227C48.5612 13.3059 48.5612 8.73853 51.378 5.92171L48.6846 3.22827L45.9911 0.53483C40.1992 6.32674 40.1992 15.7177 45.9911 21.5096L48.6846 18.8162Z" fill="#7E7E7E" mask="url(#path-1-inside-1_114_1726)"/>
</g>
</g>
<defs>
<filter id="filter0_d_114_1726" x="0" y="0" width="94.1572" height="80.4221" filterUnits="userSpaceOnUse" color-interpolation-filters="sRGB">
<feFlood flood-opacity="0" result="BackgroundImageFix"/>
<feColorMatrix in="SourceAlpha" type="matrix" values="0 0 0 0 0 0 0 0 0 0 0 0 0 0 0 0 0 0 127 0" result="hardAlpha"/>
<feOffset dy="5.0788"/>
<feComposite in2="hardAlpha" operator="out"/>
<feColorMatrix type="matrix" values="0 0 0 0 0 0 0 0 0 0 0 0 0 0 0 0 0 0 0.25 0"/>
<feBlend mode="normal" in2="BackgroundImageFix" result="effect1_dropShadow_114_1726"/>
<feBlend mode="normal" in="SourceGraphic" in2="effect1_dropShadow_114_1726" result="shape"/>
</filter>
<linearGradient id="paint0_linear_114_1726" x1="94.1585" y1="37.6723" x2="-18.4716" y2="37.6723" gradientUnits="userSpaceOnUse">
<stop stop-color="#E263D1"/>
<stop offset="0.0001" stop-color="#919191"/>
</linearGradient>
</defs>
</svg>
