<svg width="95" height="81" viewBox="0 0 95 81" fill="none" xmlns="http://www.w3.org/2000/svg">
<g filter="url(#filter0_d_114_1366)">
<mask id="path-1-inside-1_114_1366" fill="white">
<path d="M48.6846 3.22827C52.9889 -1.07606 59.9681 -1.07608 64.2725 3.22827L90.6152 29.572C90.7206 29.6695 90.8263 29.7675 90.9287 29.8699C93.0137 31.9549 94.0853 34.668 94.1504 37.4001C94.2237 40.3132 93.1518 43.2493 90.9287 45.4724C90.828 45.5732 90.7237 45.6694 90.6201 45.7654L64.2725 72.115C59.9681 76.4193 52.9889 76.4193 48.6846 72.115C44.3802 67.8106 44.3802 60.8315 48.6846 56.5271L51.791 53.4207H15.2363C6.82149 53.4207 -3.67824e-07 46.5992 0 38.1843C5.53237e-05 29.7695 6.82152 22.948 15.2363 22.948H52.8164L48.6846 18.8162C44.3802 14.5118 44.3802 7.53263 48.6846 3.22827Z"/>
</mask>
<path d="M48.6846 3.22827C52.9889 -1.07606 59.9681 -1.07608 64.2725 3.22827L90.6152 29.572C90.7206 29.6695 90.8263 29.7675 90.9287 29.8699C93.0137 31.9549 94.0853 34.668 94.1504 37.4001C94.2237 40.3132 93.1518 43.2493 90.9287 45.4724C90.828 45.5732 90.7237 45.6694 90.6201 45.7654L64.2725 72.115C59.9681 76.4193 52.9889 76.4193 48.6846 72.115C44.3802 67.8106 44.3802 60.8315 48.6846 56.5271L51.791 53.4207H15.2363C6.82149 53.4207 -3.67824e-07 46.5992 0 38.1843C5.53237e-05 29.7695 6.82152 22.948 15.2363 22.948H52.8164L48.6846 18.8162C44.3802 14.5118 44.3802 7.53263 48.6846 3.22827Z" fill="#E263D1"/>
<path d="M48.6846 3.22827L45.9911 0.53482L45.9911 0.53483L48.6846 3.22827ZM64.2725 3.22827L66.966 0.53488L66.9659 0.53483L64.2725 3.22827ZM90.6152 29.572L87.9217 32.2654C87.9564 32.3001 87.9918 32.3341 88.0278 32.3674L90.6152 29.572ZM90.9287 29.8699L93.6222 27.1764L93.622 27.1763L90.9287 29.8699ZM94.1504 37.4001L90.3424 37.4908L90.3425 37.496L94.1504 37.4001ZM90.9287 45.4724L93.6222 48.1659L93.6222 48.1658L90.9287 45.4724ZM90.6201 45.7654L88.0308 42.9717C87.9954 43.0045 87.9607 43.0379 87.9266 43.072L90.6201 45.7654ZM64.2725 72.115L66.9659 74.8084L66.966 74.8083L64.2725 72.115ZM48.6846 72.115L45.9911 74.8084L45.9912 74.8085L48.6846 72.115ZM48.6846 56.5271L51.378 59.2205H51.378L48.6846 56.5271ZM51.791 53.4207L54.4845 56.1141C55.5739 55.0247 55.8997 53.3863 55.3102 51.963C54.7206 50.5396 53.3317 49.6116 51.791 49.6116V53.4207ZM15.2363 53.4207V57.2298V53.4207ZM0 38.1843L-3.8091 38.1843V38.1843H0ZM15.2363 22.948V26.7571V22.948ZM52.8164 22.948V26.7571C54.357 26.7571 55.746 25.829 56.3356 24.4057C56.9251 22.9823 56.5992 21.344 55.5098 20.2546L52.8164 22.948ZM48.6846 18.8162L45.9911 21.5096L48.6846 18.8162ZM48.6846 3.22827L51.378 5.92172C54.1948 3.10492 58.7622 3.10492 61.579 5.92171L64.2725 3.22827L66.9659 0.53483C61.174 -5.25708 51.783 -5.25703 45.9911 0.53482L48.6846 3.22827ZM64.2725 3.22827L61.579 5.92166L87.9217 32.2654L90.6152 29.572L93.3087 26.8786L66.966 0.53488L64.2725 3.22827ZM90.6152 29.572L88.0278 32.3674C88.1407 32.4719 88.1931 32.5212 88.2354 32.5634L90.9287 29.8699L93.622 27.1763C93.4595 27.0138 93.3005 26.8671 93.2027 26.7766L90.6152 29.572ZM90.9287 29.8699L88.2353 32.5633C89.5986 33.9266 90.2996 35.6946 90.3424 37.4908L94.1504 37.4001L97.9584 37.3095C97.8711 33.6414 96.4289 29.9832 93.6222 27.1764L90.9287 29.8699ZM94.1504 37.4001L90.3425 37.496C90.3907 39.4118 89.6886 41.3256 88.2353 42.779L90.9287 45.4724L93.6222 48.1658C96.615 45.173 98.0567 41.2145 97.9583 37.3043L94.1504 37.4001ZM90.9287 45.4724L88.2353 42.779C88.1959 42.8183 88.1492 42.8619 88.0308 42.9717L90.6201 45.7654L93.2095 48.559C93.2982 48.4768 93.46 48.328 93.6222 48.1659L90.9287 45.4724ZM90.6201 45.7654L87.9266 43.072L61.5789 69.4216L64.2725 72.115L66.966 74.8083L93.3137 48.4587L90.6201 45.7654ZM64.2725 72.115L61.579 69.4215C58.7623 72.2383 54.1948 72.2383 51.378 69.4215L48.6846 72.115L45.9912 74.8085C51.783 80.6002 61.174 80.6003 66.9659 74.8084L64.2725 72.115ZM48.6846 72.115L51.378 69.4215C48.5612 66.6047 48.5612 62.0374 51.378 59.2205L48.6846 56.5271L45.9911 53.8337C40.1992 59.6256 40.1992 69.0165 45.9911 74.8084L48.6846 72.115ZM48.6846 56.5271L51.378 59.2205L54.4845 56.1141L51.791 53.4207L49.0976 50.7272L45.9911 53.8337L48.6846 56.5271ZM51.791 53.4207V49.6116H15.2363V53.4207V57.2298H51.791V53.4207ZM15.2363 53.4207V49.6116C8.9252 49.6116 3.8091 44.4955 3.8091 38.1843H0H-3.8091C-3.8091 48.7029 4.71778 57.2298 15.2363 57.2298V53.4207ZM0 38.1843L3.8091 38.1844C3.80914 31.8732 8.92526 26.7571 15.2363 26.7571V22.948V19.1389C4.71779 19.1389 -3.80903 27.6658 -3.8091 38.1843L0 38.1843ZM15.2363 22.948V26.7571H52.8164V22.948V19.1389H15.2363V22.948ZM52.8164 22.948L55.5098 20.2546L51.378 16.1227L48.6846 18.8162L45.9911 21.5096L50.123 25.6414L52.8164 22.948ZM48.6846 18.8162L51.378 16.1227C48.5612 13.3059 48.5612 8.73853 51.378 5.92171L48.6846 3.22827L45.9911 0.53483C40.1992 6.32674 40.1992 15.7177 45.9911 21.5096L48.6846 18.8162Z" fill="#AF319E" mask="url(#path-1-inside-1_114_1366)"/>
</g>
<defs>
<filter id="filter0_d_114_1366" x="0" y="0" width="94.1539" height="80.4221" filterUnits="userSpaceOnUse" color-interpolation-filters="sRGB">
<feFlood flood-opacity="0" result="BackgroundImageFix"/>
<feColorMatrix in="SourceAlpha" type="matrix" values="0 0 0 0 0 0 0 0 0 0 0 0 0 0 0 0 0 0 127 0" result="hardAlpha"/>
<feOffset dy="5.0788"/>
<feComposite in2="hardAlpha" operator="out"/>
<feColorMatrix type="matrix" values="0 0 0 0 0 0 0 0 0 0 0 0 0 0 0 0 0 0 0.25 0"/>
<feBlend mode="normal" in2="BackgroundImageFix" result="effect1_dropShadow_114_1366"/>
<feBlend mode="normal" in="SourceGraphic" in2="effect1_dropShadow_114_1366" result="shape"/>
</filter>
</defs>
</svg>
