<svg width="95" height="81" viewBox="0 0 95 81" fill="none" xmlns="http://www.w3.org/2000/svg">
<g filter="url(#filter0_d_110_693)">
<mask id="path-1-inside-1_110_693" fill="white">
<path d="M48.6846 3.22827C52.9889 -1.07609 59.9681 -1.07609 64.2725 3.22827L90.6348 29.5906C90.7334 29.6823 90.8327 29.7739 90.9287 29.8699C92.9502 31.8914 94.0218 34.503 94.1445 37.1501C94.2874 40.1444 93.2153 43.1858 90.9287 45.4724C90.8329 45.5682 90.7332 45.6592 90.6348 45.7507L64.2725 72.115C59.9682 76.4193 52.9889 76.4192 48.6846 72.115C44.3802 67.8106 44.3802 60.8315 48.6846 56.5271L52.4258 52.7859H14.6016C6.53748 52.7859 0.000214263 46.2484 0 38.1843C3.52498e-07 30.1201 6.53734 23.5828 14.6016 23.5828H53.4521L48.6846 18.8152C44.3804 14.5109 44.3805 7.53261 48.6846 3.22827Z"/>
</mask>
<path d="M48.6846 3.22827C52.9889 -1.07609 59.9681 -1.07609 64.2725 3.22827L90.6348 29.5906C90.7334 29.6823 90.8327 29.7739 90.9287 29.8699C92.9502 31.8914 94.0218 34.503 94.1445 37.1501C94.2874 40.1444 93.2153 43.1858 90.9287 45.4724C90.8329 45.5682 90.7332 45.6592 90.6348 45.7507L64.2725 72.115C59.9682 76.4193 52.9889 76.4192 48.6846 72.115C44.3802 67.8106 44.3802 60.8315 48.6846 56.5271L52.4258 52.7859H14.6016C6.53748 52.7859 0.000214263 46.2484 0 38.1843C3.52498e-07 30.1201 6.53734 23.5828 14.6016 23.5828H53.4521L48.6846 18.8152C44.3804 14.5109 44.3805 7.53261 48.6846 3.22827Z" fill="url(#paint0_linear_110_693)"/>
<path d="M48.6846 3.22827L45.9911 0.53483L45.9911 0.534907L48.6846 3.22827ZM64.2725 3.22827L61.579 5.92171L64.2725 3.22827ZM90.6348 29.5906L87.9413 32.284C87.9738 32.3165 88.0069 32.3484 88.0405 32.3797L90.6348 29.5906ZM90.9287 29.8699L93.6222 27.1764L93.622 27.1763L90.9287 29.8699ZM94.1445 37.1501L90.3395 37.3266L90.3398 37.3316L94.1445 37.1501ZM90.9287 45.4724L93.6221 48.1659L93.6222 48.1659L90.9287 45.4724ZM90.6348 45.7507L88.0403 42.9618C88.0067 42.9931 87.9737 43.0249 87.9412 43.0574L90.6348 45.7507ZM64.2725 72.115L66.9659 74.8084L66.966 74.8083L64.2725 72.115ZM48.6846 72.115L45.9911 74.8084L45.9912 74.8085L48.6846 72.115ZM48.6846 56.5271L45.9911 53.8337L45.9911 53.8337L48.6846 56.5271ZM52.4258 52.7859L55.1192 55.4793C56.2086 54.3899 56.5345 52.7516 55.9449 51.3282C55.3554 49.9048 53.9664 48.9768 52.4258 48.9768V52.7859ZM14.6016 52.7859V56.595V52.7859ZM0 38.1843H-3.8091V38.1844L0 38.1843ZM14.6016 23.5828V27.3919V23.5828ZM53.4521 23.5828V27.3919C54.9928 27.3919 56.3817 26.4638 56.9713 25.0404C57.5609 23.6171 57.235 21.9787 56.1456 20.8893L53.4521 23.5828ZM48.6846 18.8152L45.9911 21.5086L45.9911 21.5086L48.6846 18.8152ZM48.6846 3.22827L51.378 5.92171C54.1948 3.1049 58.7622 3.1049 61.579 5.92171L64.2725 3.22827L66.9659 0.53483C61.174 -5.25708 51.783 -5.25708 45.9911 0.53483L48.6846 3.22827ZM64.2725 3.22827L61.579 5.92171L87.9413 32.284L90.6348 29.5906L93.3282 26.8971L66.9659 0.53483L64.2725 3.22827ZM90.6348 29.5906L88.0405 32.3797C88.16 32.4908 88.1996 32.5276 88.2354 32.5634L90.9287 29.8699L93.622 27.1763C93.4659 27.0201 93.3067 26.8737 93.229 26.8015L90.6348 29.5906ZM90.9287 29.8699L88.2353 32.5633C89.5593 33.8873 90.259 35.5898 90.3395 37.3266L94.1445 37.1501L97.9495 36.9737C97.7846 33.4161 96.3411 29.8954 93.6222 27.1764L90.9287 29.8699ZM94.1445 37.1501L90.3398 37.3316C90.4336 39.2989 89.7316 41.2826 88.2353 42.779L90.9287 45.4724L93.6222 48.1659C96.6991 45.089 98.1411 40.9899 97.9493 36.9686L94.1445 37.1501ZM90.9287 45.4724L88.2353 42.7789C88.2026 42.8116 88.1766 42.835 88.0403 42.9618L90.6348 45.7507L93.2292 48.5397C93.2897 48.4834 93.4632 48.3248 93.6221 48.1659L90.9287 45.4724ZM90.6348 45.7507L87.9412 43.0574L61.5789 69.4216L64.2725 72.115L66.966 74.8083L93.3283 48.4441L90.6348 45.7507ZM64.2725 72.115L61.579 69.4215C58.7623 72.2382 54.1948 72.2382 51.3779 69.4215L48.6846 72.115L45.9912 74.8085C51.783 80.6001 61.174 80.6003 66.9659 74.8084L64.2725 72.115ZM48.6846 72.115L51.378 69.4215C48.5612 66.6048 48.5612 62.0374 51.378 59.2205L48.6846 56.5271L45.9911 53.8337C40.1993 59.6256 40.1992 69.0165 45.9911 74.8084L48.6846 72.115ZM48.6846 56.5271L51.378 59.2205L55.1192 55.4793L52.4258 52.7859L49.7323 50.0924L45.9911 53.8337L48.6846 56.5271ZM52.4258 52.7859V48.9768H14.6016V52.7859V56.595H52.4258V52.7859ZM14.6016 52.7859V48.9768C8.64128 48.9768 3.80926 44.1447 3.8091 38.1842L0 38.1843L-3.8091 38.1844C-3.80883 48.352 4.43367 56.595 14.6016 56.595V52.7859ZM0 38.1843H3.8091C3.8091 32.2238 8.64105 27.3919 14.6016 27.3919V23.5828V19.7737C4.43363 19.7737 -3.8091 28.0164 -3.8091 38.1843H0ZM14.6016 23.5828V27.3919H53.4521V23.5828V19.7737H14.6016V23.5828ZM53.4521 23.5828L56.1456 20.8893L51.378 16.1217L48.6846 18.8152L45.9911 21.5086L50.7587 26.2762L53.4521 23.5828ZM48.6846 18.8152L51.378 16.1218C48.5614 13.3051 48.5614 8.73849 51.3781 5.92164L48.6846 3.22827L45.9911 0.534907C40.1996 6.32674 40.1994 15.7167 45.9911 21.5086L48.6846 18.8152Z" fill="#7E7E7E" mask="url(#path-1-inside-1_110_693)"/>
</g>
<defs>
<filter id="filter0_d_110_693" x="0" y="0" width="94.1571" height="80.4221" filterUnits="userSpaceOnUse" color-interpolation-filters="sRGB">
<feFlood flood-opacity="0" result="BackgroundImageFix"/>
<feColorMatrix in="SourceAlpha" type="matrix" values="0 0 0 0 0 0 0 0 0 0 0 0 0 0 0 0 0 0 127 0" result="hardAlpha"/>
<feOffset dy="5.0788"/>
<feComposite in2="hardAlpha" operator="out"/>
<feColorMatrix type="matrix" values="0 0 0 0 0 0 0 0 0 0 0 0 0 0 0 0 0 0 0.25 0"/>
<feBlend mode="normal" in2="BackgroundImageFix" result="effect1_dropShadow_110_693"/>
<feBlend mode="normal" in="SourceGraphic" in2="effect1_dropShadow_110_693" result="shape"/>
</filter>
<linearGradient id="paint0_linear_110_693" x1="94.1585" y1="37.6713" x2="-18.4716" y2="37.6713" gradientUnits="userSpaceOnUse">
<stop stop-color="#E263D1"/>
<stop offset="0.0001" stop-color="#919191"/>
</linearGradient>
</defs>
</svg>
